# xmcd CD database file
#
# Track frame offsets:
#	150
#	13372
#	33762
#	51252
#	61763
#	82948
#
# Disc length: 1249 seconds
#
# Revision: 0
# Processed by: cddbd v1.5.1PL0 Copyright (c) Steve Scherf et al.
# Submitted via: CDex 1.51
#
DISCID=4004df06
DTITLE=ANDERSENS - PREPARED LANDSCAPE
DYEAR=2004
DGENRE=Rock
TTITLE0=EMPTY LOVE
TTITLE1=BACHARACH
TTITLE2=LET IT FLOW
TTITLE3=TRINKLE TINKLE
TTITLE4=SWAN
TTITLE5=PREPARED LANDSCAPE
EXTD=YEAR: 2004
EXTT0=
EXTT1=
EXTT2=
EXTT3=
EXTT4=
EXTT5=
PLAYORDER=
